<mxfile host="65bd71144e">
    <diagram id="r92mCZLqq8wqAsVTjPHo" name="Page-1">
        <mxGraphModel dx="929" dy="609" grid="1" gridSize="10" guides="1" tooltips="1" connect="1" arrows="1" fold="1" page="1" pageScale="1" pageWidth="827" pageHeight="1169" math="0" shadow="0">
            <root>
                <mxCell id="0"/>
                <mxCell id="1" parent="0"/>
                <mxCell id="5" value="" style="edgeStyle=none;html=1;" parent="1" source="2" target="4" edge="1">
                    <mxGeometry relative="1" as="geometry"/>
                </mxCell>
                <mxCell id="6" value="" style="edgeStyle=none;html=1;" parent="1" source="2" target="4" edge="1">
                    <mxGeometry relative="1" as="geometry"/>
                </mxCell>
                <mxCell id="8" value="" style="edgeStyle=none;html=1;" parent="1" source="2" target="7" edge="1">
                    <mxGeometry relative="1" as="geometry"/>
                </mxCell>
                <mxCell id="2" value="Image" style="rounded=0;whiteSpace=wrap;html=1;" parent="1" vertex="1">
                    <mxGeometry x="150" y="90" width="100" height="70" as="geometry"/>
                </mxCell>
                <mxCell id="16" value="" style="edgeStyle=none;html=1;" parent="1" source="3" target="15" edge="1">
                    <mxGeometry relative="1" as="geometry">
                        <Array as="points">
                            <mxPoint x="520" y="150"/>
                        </Array>
                    </mxGeometry>
                </mxCell>
                <mxCell id="18" value="" style="edgeStyle=none;html=1;" parent="1" source="3" target="17" edge="1">
                    <mxGeometry relative="1" as="geometry"/>
                </mxCell>
                <mxCell id="3" value="Zoom Image" style="rounded=0;whiteSpace=wrap;html=1;" parent="1" vertex="1">
                    <mxGeometry x="540" y="90" width="100" height="70" as="geometry"/>
                </mxCell>
                <mxCell id="4" value="*pix (array)" style="rounded=0;whiteSpace=wrap;html=1;" parent="1" vertex="1">
                    <mxGeometry x="250" y="230" width="100" height="70" as="geometry"/>
                </mxCell>
                <mxCell id="7" value="Int width&lt;br&gt;Int height" style="rounded=0;whiteSpace=wrap;html=1;" parent="1" vertex="1">
                    <mxGeometry x="80" y="230" width="100" height="70" as="geometry"/>
                </mxCell>
                <mxCell id="12" value="aa" style="rounded=0;whiteSpace=wrap;html=1;fillStyle=dashed;fillColor=default;gradientColor=none;gradientDirection=east;" parent="1" vertex="1">
                    <mxGeometry x="250" y="330" width="60" height="60" as="geometry"/>
                </mxCell>
                <mxCell id="13" value="ab" style="rounded=0;whiteSpace=wrap;html=1;fillStyle=dashed;fillColor=default;gradientColor=none;gradientDirection=east;" parent="1" vertex="1">
                    <mxGeometry x="310" y="330" width="60" height="60" as="geometry"/>
                </mxCell>
                <mxCell id="14" value="ac" style="rounded=0;whiteSpace=wrap;html=1;fillStyle=dashed;fillColor=default;gradientColor=none;gradientDirection=east;" parent="1" vertex="1">
                    <mxGeometry x="370" y="330" width="60" height="60" as="geometry"/>
                </mxCell>
                <mxCell id="15" value="int width int height" style="rounded=0;whiteSpace=wrap;html=1;" parent="1" vertex="1">
                    <mxGeometry x="480" y="200" width="60" height="70" as="geometry"/>
                </mxCell>
                <mxCell id="20" value="" style="edgeStyle=none;html=1;" parent="1" source="17" target="19" edge="1">
                    <mxGeometry relative="1" as="geometry"/>
                </mxCell>
                <mxCell id="17" value="*pix (array)" style="rounded=0;whiteSpace=wrap;html=1;" parent="1" vertex="1">
                    <mxGeometry x="610" y="210" width="90" height="70" as="geometry"/>
                </mxCell>
                <mxCell id="19" value="*pix (array)" style="rounded=0;whiteSpace=wrap;html=1;" parent="1" vertex="1">
                    <mxGeometry x="610" y="360" width="90" height="70" as="geometry"/>
                </mxCell>
                <mxCell id="21" value="aa" style="rounded=0;whiteSpace=wrap;html=1;fillStyle=dashed;fillColor=default;gradientColor=none;gradientDirection=east;" parent="1" vertex="1">
                    <mxGeometry x="565" y="460" width="60" height="60" as="geometry"/>
                </mxCell>
                <mxCell id="22" value="ab" style="rounded=0;whiteSpace=wrap;html=1;fillStyle=dashed;fillColor=default;gradientColor=none;gradientDirection=east;" parent="1" vertex="1">
                    <mxGeometry x="625" y="460" width="60" height="60" as="geometry"/>
                </mxCell>
                <mxCell id="23" value="ac" style="rounded=0;whiteSpace=wrap;html=1;fillStyle=dashed;fillColor=default;gradientColor=none;gradientDirection=east;" parent="1" vertex="1">
                    <mxGeometry x="685" y="460" width="60" height="60" as="geometry"/>
                </mxCell>
                <mxCell id="27" value="aa" style="rounded=0;whiteSpace=wrap;html=1;fillStyle=dashed;fillColor=default;gradientColor=none;gradientDirection=east;" parent="1" vertex="1">
                    <mxGeometry x="565" y="520" width="60" height="60" as="geometry"/>
                </mxCell>
                <mxCell id="28" value="ab" style="rounded=0;whiteSpace=wrap;html=1;fillStyle=dashed;fillColor=default;gradientColor=none;gradientDirection=east;" parent="1" vertex="1">
                    <mxGeometry x="625" y="520" width="60" height="60" as="geometry"/>
                </mxCell>
                <mxCell id="29" value="ac" style="rounded=0;whiteSpace=wrap;html=1;fillStyle=dashed;fillColor=default;gradientColor=none;gradientDirection=east;" parent="1" vertex="1">
                    <mxGeometry x="685" y="520" width="60" height="60" as="geometry"/>
                </mxCell>
                <mxCell id="30" value="aa" style="rounded=0;whiteSpace=wrap;html=1;fillStyle=dashed;fillColor=default;gradientColor=none;gradientDirection=east;" parent="1" vertex="1">
                    <mxGeometry x="565" y="580" width="60" height="60" as="geometry"/>
                </mxCell>
                <mxCell id="31" value="ab" style="rounded=0;whiteSpace=wrap;html=1;fillStyle=dashed;fillColor=default;gradientColor=none;gradientDirection=east;" parent="1" vertex="1">
                    <mxGeometry x="625" y="580" width="60" height="60" as="geometry"/>
                </mxCell>
                <mxCell id="32" value="ac" style="rounded=0;whiteSpace=wrap;html=1;fillStyle=dashed;fillColor=default;gradientColor=none;gradientDirection=east;" parent="1" vertex="1">
                    <mxGeometry x="685" y="580" width="60" height="60" as="geometry"/>
                </mxCell>
            </root>
        </mxGraphModel>
    </diagram>
</mxfile>